<svg xmlns="http://www.w3.org/2000/svg" viewBox="0 0 500 500" enable-background="new 0 0 500 500"><g fill="#222"><path d="M369.1 131.6l5.7-3.4-.2-4.8c-1.8 2.8-4.4 5-5.5 8.2zM114.2 172.4c4-1.9 5.4-3.3 6.7-4.6 3.8-3.6 7.8-7.1 7.8-7.2 1.7-.9 4.6-.3 6.5-.5l-5.6 3.8c-.1 4.1-2.7 7.3-4 11 9.8 1.2 15.3-7.3 23.2-10.4l.2-.1c-6-3.1-7.9-8.8-10.2-17.6-10.1-3.7-12.8-3.2-19.3 3.5 3 .9 5.1 3.4 7.7 5-10.2 6.5-11.9 11.4-13 17.1zM429.7 110.9c-2.4-3.1-2.4-3.1-2.7-3.4l.2.3c-.6-1-1.6-2.5-4.6-6 5.5 8.8 5.5 8.8 9.1 13.6v-.3c.6 0 2.9 2.7 3.8 3.8 2 2.9 4 5.9 5.9 8.8-.4-.6-.7-1.1-1-1.7-2.7-4.2-5.7-8.5-8.1-12.1l-2.6-3zM250 0c-138.1 0-250 111.9-250 250s111.9 250 250 250 250-111.9 250-250-111.9-250-250-250zm7.9 57.7l.6-5.4c3.5 1.7 5.2 2.2 5.8 2.4 0 0 1.9.2 4.2 0 1.8-.1 3 1.5 4.7 1.7-.2-1.9-.3-3.4.8-4.3.9-.8 2 .2 2.9-.1l2.8-2 .4-.1 1.4-.4.3-.1 4.9 2.5c-1.4.3-2.8.6-4.3.9 1 1 2 2 3 2.9 2 1.3 2.3 1 6.4-2.5l-.1.4c0 .1 2.7 9 11 16.4l1.4 4.3c-2.6-.9-3.7-1.1-4.8-1 1.8 2.4 3.7 4.9 5.4 7.4-6.1-.2-6.9 0-7.8 1 .1 1.3 5.2 4 7 3.9-11 14.4-27.9 24-32.6 24.9.4 2.7.5 5.1-2.6 5.2-4 .2-5.8-3.9-9.2-4.7-.5-3.7-3.3-6.8-3-10.8l.7-1.4c1.4-2.6 2.8-5.7 4.2-9.2l-3.6-4.4c.7-2.9.8-4.4.6-6.2-2.4-2.8-4.7-7.1-7.5-9.4 0 0-4.1-1.4-6-1.5 4.7-4.9 7-8 9.8-12.5 1.9 1.9 2.4 2 3.2 2.1zm-20 5c-2.4-3.5-3-4.8-3.4-6.7 1.1 0 2.5-.3 5.3-.9 3-.7 6-1.4 7.6-.6.7-.7 1-.9 1.5-1 .4-.1 2.3 1.4 1.8 3-2 6-3.9 8.1-8 8.3l-3.7 5c-1.4-1.2-2.2-1.5-3.3-1.6-1.9 2.2-2.7 2.5-10 4.8-2.4-1.4-3.3-1.8-4.3-1.9 5.6 0 8.3-1.9 16.5-8.4zm-20.9 15.1c-1.1 3-1.2 4.1-.7 4.4 2.5-1.9 3.5-2.6 4.9-3.6l1.9 4c1-.3 2.1-.3 5.1 1 2.6 1.1 4 1.6 4.9 1.7-.1 2.4.8 3.9 3.8 6-.2 2.9-.5 8.3 3 7.1l-.1 1.1c-.5 3.5-2.8 5.9-4.1 7.2-4.8-5-9.4-7.9-16.6 6.4l-3.9-7.3c-3.3-.2-6.6-.4-9.7-.7 2.9-.4 5.7-1.4 8.7-1.3 2.9-4.8 5-7.8 9.2-12.9-.6-4.3-7.8-6.8-11.6-4.9-2.1-4.2-2.1-4.2-2.3-4.3 2.6-2.2 2.6-2.2 7-3.7l.5-.2zm-4.7-24.3l.5-.3c-.6 3.5-.6 3.5-1.5 4.2-2.1 1.7-2.6 1.9-2.9 2.1-.2-.6-.2-1.1-.1-2-1.9.8-1.9.8-5.9 1.4 1.9-.6 1.9-.6 9.9-5.4zm-9.2 17.6c.9-1.5 1.8-3 2.5-4.4l.1-.3s1.4-.8 3.7-1.8l.2-.1-.1 3.7-.2.2c-3.6 3-5.6 2.8-6.2 2.7zm4.3 12.5l-.1-.5c-.8-6.1.2-8.2.8-9.3l.2-.3c.3 4.2.3 7.4-.9 10.1zm-16.5-20.7c.1.2.2.6 1 .8 1.4.3 2.8 0 4.1.2l.4.1c-.9 1.1-1.3 1.8-1.4 3.1-.2 1.4.4 2.7.3 4.1 1.5-.8 3.1-1.4 4.5-2.3l-.5.7c-1.2 1.5-2.4 2.9-3.5 4.4-1.2-.2-2.4-.4-3.7-.6l-5.2-3.7 4.7-2.7c-.3-.1-.3-.1-7.1-.2l-.3-1c1.3-.7 2.8-1.3 6.7-2.9zm-17.9 17.1c.4-.8.7-1.5 1-2.3.4-1.4-.3-2.8-.2-4.2.2-2.2 2.5-3.3 2.7-5.4v-.2c1.9 1.7 1.9 1.7 1.9 4.6l3.6 3.2c2.8-1.1 3.9-1.4 4.7-1.4.4 1 .9 2.5 5.4 3.2l-1.3 1.1c-10.9 8.9-19.9 8-22.7 2.7 1.8-.8 4.6-1.3 4.9-1.3zm-87 1.8l.9-.8-.3.4 1.2-1-.7.7-.2.3 1-.9-.5.8-.6.6-1 .7-.9.5 1.1-1.3zm177.8 289.8c-.6 10.5-.6 10.5-16.5 27.8 4.4 10.1 4.4 10.1-23.3 27 1.8 5.8 1.8 5.8 1.7 16.2l-3.9 2.9c-1.1-.3-2.6-.7-3.7-1.1-4.4 3.4-9.9 4.1-14.8 6.3.9 1 2 2.5 2.7 3.7-5.3-.1-6.7 0-12.1 1.4l6.1 1.3c-.9 4.2-.9 4.2 2.9 9.8l4.6 2.3 1.2 1.5-1.3 2.6c-9.1-2.2-17.1-7.1-25.9-9.9-1.5-1.3-2.9-2.8-4.2-4.4-24.8-13.7-40.1-34.2-45.3-61-14.7-4.3-32-19.9-37.4-25.6-1-3.4-1.9-6.8-2.8-10.2-13.4-7.4-33.6-18.6-9.5-57-.2-.4-16.5-42.6-51.6-64.8-1.1-6.5-2-15.2-2.7-21.7 1.3-5.8 2.7-11.6 4.5-18.6.3-3.7.3-3.7 6.8-30.6-2.3 3.6-2.3 3.6-3.7 9.1-7.5 8.1-8 22.5-7.9 22.7h-2.3c1.4-4.1 1.5-8.4 2.3-12.6.7-2 1.4-3.9 2.1-5.8 1.3-3.6 2.7-7.1 4.8-11.6 3.5-5.9 3.5-5.9 5.6-17.5 5.7-8.4 5.7-8.4 65.5-62.9-1.7-.5-3.9-1.3-5.5-1.9 6.4-7.2 6.4-7.2 7.1-9.4-.2-.4-.5-.7-2.1-.6-3.7 1.5-3.7 1.5-6.1 3.5.8-1.2 1.8-2.8 2.5-3.9-2.9 1-6.1.6-8.8 2.3-.6-.2-1.5-.6-2.1-.9-.8.4-1.8 1-2.5 1.5 2.8-2.6 3-2.8 5.2-4.7-.4.7-.8 1.4-1 2.1 13.4-10 13.4-10 15.4-10.6l1.9 1.1c8.1-4.6 8.1-4.6 11.7-5l-1 2.1c8.9-4.3 8.9-4.3 12.1-6.1-1.1 1.2-2.5 2.7-3.5 3.8 1.4-.3 3.4-.3 4.9-.2-.4.5-.9 1.2-1.2 1.7.4.5.8 1.2 1.2 1.8-.7 1-1.6 2.5-2.1 3.7 8-1.9 9.5-1.5 12.2-.8-1.3 1.9-3.1 4.5-4.4 6.5 4.2 1.5 5.9 1.4 10.8-.6 1.8.7 3.6 1.3 5.6 2l-1.7 4.3c1.5.5 3 .9 4.5 1.3-10.2 5-11.1 5.2-20.1 7 2.8 3.3 3 3.5 22.3-6.4l.6 4.9c1.3.2 2.9.6 4.2.9l-.9 2 6.6-3c4.3 1.7 4.8 1.9 9 2.2.2.7.5 1.5.7 2.1 9.7.5 9.7.5 18.7-16.1l.7.3c.7 5.2-1.1 10.7 1.5 15.7 2.6-.7 4.2-1.1 8.8-3.3l1.6 4.4c-1.9 1.7-4.5 4-6.4 5.8-8.3-3.9-8.3-3.9-31.2 10.5l-7.2 3.7c-2.8 1.4-6.5 3.3-9.4 4.8.3 5.7 3.1 22.5 7.8 28.1 9.1-10.2 19.8-18.8 28.8-29.2 2.3.3 4.7.5 7.1.7.1-2 .2-4.7.3-6.8 3.7.7 3.7.7 10.7 12.6 5.2-1.2 9.4-1.4 14.3 1.1-1.9 3.5-1.9 3.5-3 6.9l3.4 6.3c-1.7 3.5-1.7 3.5-2.4 7.1 5.9-2.4 7.2-2.8 11.5-3.1-15.6 13.2-15.6 13.2-19.5 13-16.5-.6-25.4 0-34.8 7.7 18.9-3.5 18.9-3.5 19.2-3.4l-5.2 5.6c3.3 3.8 3.3 3.8 7.3 4.6-43 11.7-43 11.7-59.6 19.1-3 2.9-3 2.9-12.9 15-3.1-.6-6.2-1.2-10-1.1-4.6 3.1-10.1 4.5-14.7 7.7l1.4-5.6c-3.9 6.9-4.6 9.3-5.9 13.7l3.3 7.4c-3.2 2.7-7.5 6.3-10.7 8.9.4-9.1-2-18.3-.3-27.5-4.1 1.5-4.6 1.5-7.3 1.3l-2.1-6.7-6.7 3.7c-8.1-5.5-8.1-5.5-21.7-6-7.5 14-7.5 14-11.3 15.9-1.5 10.9.8 21.5 1.5 24.5 2 1 4 1.9 6.2 2.9 5.1-6 7.8-7.7 12.1-7.3-1.3 4.9-1.9 6-5.4 10.1-.6 3.8-1.1 7.6-1.5 11.5l1.6 4c9.3 5.6 14.2 14 14.3 15.5 17.3 11.6 19.9 13.4 28.3 5.3 5.5 3.5 8.2 5.2 14.4 8.9l7.1-.7c10.7 4.1 20.8 8.1 28.9 16l2.9 3c3.7 12 3.7 12 16.2 13.7 6.6.9 8.6 1.1 17.2 18.2l-5.3 5.6c1.9 1.3 4.5 3.1 6.5 4.5 7.8-6.1 12.5-6.4 15.7-6.6 21.8 20.8 57.9 22.2 58.2 22.2-.3 1-.4 2.6-.4 3.9zm-38.1-211.1l-5 5.7c-1-2.6-7.5-7.8-7.6-7.8l-.1-.1 12.7 2.2zm-97.5 103l-5.4 5c-5.5-7-5.5-7-10.2-6.5-1.8-7.1-1.2-7.5 3.1-8.8l1.2-.3 7.1 3.9 4.2 6.7zm-23.1-12.9l-2.4 2.1c-8.7-2-8.7-2-12.2-8.3l-1.4-.4c-9.3-2.7-11.7-6.3-12.7-7.7 3 .4 4.8.6 7.9.7 5.2 0 5.9 5.5 6.1 7.4 6.5-3.5 6.5-3.4 10.5 1.9 2.3 2.9 3.3 3.9 4.2 4.3zm208.3 19.1c0 1.1-1 1.9-2.3 1.9h-36.2v36.2c0 1.3-.9 2.3-1.9 2.3h-47c-1.1 0-1.9-1-1.9-2.3v-36.2h-36.2c-1.3 0-2.3-.9-2.3-1.9v-46.9c0-1.1 1-1.9 2.3-1.9h36.1v-36.2c0-1.3.9-2.3 1.9-2.3h46.9c1.1 0 1.9 1 1.9 2.3v36.2h36.2c1.3 0 2.3.9 2.3 1.9v46.9zm-.2-167.9l-5.4-3.8c2-1.3 4-2.1 6.9-2.7 3.3-.6 6-.7 9.1-.2v.8c.1 1.9 0 4.1-10.6 5.9zm149.2 226.4c-4.7 12.8-5.1 13.6-15.7 34.3-6.9 12.1-7.7 13.3-21.1 31.3-13.8 17-18.9 20.6-22.3 23 14.4-18.6 21.4-41.4 33.8-61.1 1.8-4.9 3.4-10 4.9-15.1 4.2-52 3.3-51.7-21.2-44-7.9 2.6-16.6 5-26 7.2-1.3 2-3 4.7-4.2 6.7-6.6-2-6.6-2-36.9-29 3.6-8 3.6-8 .3-32.1l-6-5c18.8-26.7 24.6-41.7 31.3-59l.7-.2.7-.2.7-.2.7-.2.7-.2.7-.2.7-.2.6-.1c0-.7.1-1.5.1-2.1l-1.4-1.4c16.2-4.5 27.4-10.9 32.8-13.9.1.1 12.6 13.4 19.4 14.2 1.6-5.1 1.8-6.3 1.6-9.3 13.5-5.5 13.5-5.5 13.5-5.6l.9-.8c-.5-5.9-1.2-7.1-7.1-16.9-1.4-2.8-3.3-6.5-4.6-9.2-.6.3-1.3.7-1.8 1 .3 3 .7 7.1 1.1 10.1-5.3-4.3-5.3-4.3-7.5-6.8-1-1.6-2-3.2-3.1-4.8-.4-9.5-.4-9.7.7-16.3.2-.6.4-1.2.7-1.4 1.7 2.1 2.1 2.5 4.8 3.7-5-7.7-5-7.7-14-13.3l-.1.2-.1.2-.1.2-.1.2-.1.2-.1.2-.1.2-.1.2c.8.7 1.8 1.6 2.5 2.3l-.2 2.1c-1.2-.2-2.9-.2-4.2-.1 2.8 4.8 5.1 9.9 8.3 14.5.9 2 1.1 2.3-1 5.4 1.6 6.2 8.8 9.9 7.8 17.4-22.3-18-22.3-18-26.7-18.7-.4.5-1.1 1.2-1.5 1.8 3.5 2.8 3.5 2.8 5.7 3.5.3-.6.6-1.3.9-1.8 7.4 10.3 8.7 12.6 10.6 16.3-2.4-3.2-2.4-3.2-4.4-6.1-6.2 2.2-6.6 1.7-18-9.9-1.5.7-3.1 1.3-4.7 2-4.4 5-1.7 12.8-6.8 17.5 1.6 3.4 3.2 6.8 4.6 10.3-7.5 3.3-8.1 3.5-22.9 8.7l-.2-.8-.3-.8-.3-.8-.3-.8-.3-.8-.3-.8-.3-.8-.3-.9 1.5-1.5c-2.9-6.1-6.5-11.9-9.3-18 16.3-1 17.9-1.9 19.4-2.7-10.1-15.5-10.1-15.5-13.6-15.9l.4-1.5c-.9-1-2.2-2.2-3.2-3.2l-.3-8.4c-9.9-6.4-10.6-9.3-11-11 .9-.9 2.4-2.1 3.5-2.8l.8 1.1.8 1.1.8 1.1.8 1 .8 1.1.8 1.1.8 1.1c.3.4.5.7 1.6 1.6 4.3 2.4 4.3 2.4 12.1 5.3 0-2.2-.1-5.1-.1-7.2 1-.8 2.1-2.2 2.5-3.4-5.9-7.2-5.9-7.2-5.6-9.3 6.3 7 6.9 7.2 9.4 8.1.4-1.2.9-2.9 1.2-4.2 3.3 1.7 3.3 1.7 6 2.5-.1-5.1-.1-5.1-11.3-26.8-.4.4-.8.7-2.6 2-1.4.3-3.5.4-5 .1l-6.3-8.8-3.7-.3c13 16.9 13 16.9 11 22.4h-2l-1-1-1-1-1-1-1-1-1-1.1-1.1-1-1.1-1.1-.6-.5c3.5 4.5 3.5 4.5 4.4 7.8-.6.4-1.3.9-1.9 1.4-11.3-9.2-11.3-9.2-10-15.2-4.7-8.7-5.7-9.8-14.8-20.4 1.8-1.1 3.4-2.2 4.7-3.4 10.2 3.7 10.6 3.8 13.9 1.7l5.3 2.1 4.4 3.9c-1.9-.2-4.6-.4-6.5-.5l1.9 1.7 11.7 4.3c-2.5-3-6-6.8-8.7-9.6-3.7-3.8-6.7-8.2-10.5-11.9-1.7-.8-4-1.8-5.8-2.5l2.1-.7c-2.3-1.7-2.3-1.7-8.4-4.3 5.4 1.7 10.5 3.8 15.8 5.7-5.9-3.6-8.5-4.8-12.4-6.7l-1.4.4c-2.2-1.5-2.2-1.5-21.2-9.1 12.7 3.8 24.8 9 36.1 15.4 19.5 11.3 29.8 20.1 42.8 31.3 10.6 10 11.5 11 25.8 28.1 6 7.8 7.9 10.4 12.8 18.4 1.5 2.3 2.9 4.5 4.1 6.5l-.1-.1.3.6-3.3-5.3c1.8 3 4 6.7 6.8 11.5 6.4 11.9 6.7 12.8 15.3 34.6 1.5 4.9 3.2 10.7 4.7 16.5 1.6 4.7 2.5 9.4 3.3 13-1-3.9-2.1-8.4-3.3-13-1.3-3.9-2.9-7.8-5.2-11.3-.1.6-.2 1.1-.4 1.6 4.3 9.2 11 34.9 11.1 35.1l.1.8c1.1 10 1.9 23.4 2.3 33.4-.2 15.9-.4 17.8-3.8 41.3-2.4 13.3-2.7 14.2-9.8 36.8zm-114.2-204.1c1.1-2.3 2.5-5.5 4.5-6.3l.2-.1 4.2 8.9c-2.5.8-3.6 2.7-3.9 6.9l-.3-.6-.3-.6-.3-.6-.3-.6-.3-.6-.3-.6-.3-.6-.3-.6-.3-.6-.3-.6-.3-.6-.3-.6-.3-.6-.3-.6-.3-.6-.5-.4zm22.9-33.9l-.5-.5-.6-4.3-.1-.3.2.4c3.1 5.1 4.7 9.4 4.9 9.8-.1-.4-.6-1.7-3.9-5.1z"/></g></svg>