<svg xmlns="http://www.w3.org/2000/svg" viewBox="0 0 500 500" enable-background="new 0 0 500 500"><g fill="#222"><path d="M253.3 357.4l-9.7 17.4v124.5c2.1.1 4.3.1 6.4.1 4.3 0 8.6-.1 12.9-.3v-124.5l-9.6-17.2zM229.6 357.3l-8.6 16.8v123.6c5.3.6 10.6 1.1 16 1.3v-124.1l-7.4-17.6zM279.1 357.4l-9.6 17.9v123.3c5.6-.4 11.1-1 16.6-1.8v-122.3l-7-17.1zM250 .6c-138.1 0-250 112-250 250 0 126.4 93.8 230.9 215.5 247.7v-140.4l36.2-136.4 39.4 135.6v140.1c118.5-19.5 208.9-122.5 208.9-246.6 0-138-111.9-250-250-250zm58.7 205.6c-16.2-16.2-37.4-24.3-58.7-24.3-21.3 0-42.4 8.1-58.7 24.3l-19.6-19.6c21.6-21.6 50-32.4 78.3-32.4 28.3 0 56.7 10.8 78.3 32.4l-19.6 19.6zm46.4-46.4c-29.1-29-67-43.5-105.1-43.5-38.1 0-76 14.5-105.1 43.5l-19.6-19.6c34.4-34.4 79.6-51.7 124.7-51.7 45.1 0 90.3 17.2 124.7 51.7l-19.6 19.6zm44.7-44.7c-41.5-41.5-95.8-62-150.2-62-54.1 0-108 20.8-149.3 62l-19.7-19.6c46.6-46.6 107.8-70.2 168.9-70.2 61.4 0 123 23.3 169.8 70.2l-19.5 19.6zM243 269.4s7-31.3 8.8-32.7c2.2 2.2 9.4 32.7 9.4 32.7-11.2 6.3-18.2 0-18.2 0z"/></g></svg>