<svg xmlns="http://www.w3.org/2000/svg" viewBox="0 0 500 500" enable-background="new 0 0 500 500"><g fill="#222"><path d="M161.6 226.2l-.1-1.7-23 23.3c-25 25-38 50.4-38.6 75.6-.3 12.7 2.7 25.1 8.7 36.9l39.2-39.2c.3-10.5 4.4-20.9 12.3-28.9l23.1-23.5c-2.7-1.2-5.4-3.3-8-6.3-3.2-3.8-6.1-8.9-8.5-14.8-2.8-6.9-4.7-14.6-5.1-21.4zM188.3 262.5c1.1 0 2-.4 2.9-1.2 4.3-4.3 3.4-18.5-1.9-31.8-4.3-10.7-10.2-17.5-14.6-17.5-1.1 0-2 .4-2.9 1.2-4.3 4.3-3.4 18.5 1.9 31.8 4.3 10.7 10.2 17.5 14.6 17.5zM145.5 399.5l35.7-35.7 7.2-7.2 6.4-6.4c4.3-4.3 6.7-10 6.7-16.1 0-6.1-2.4-11.8-6.7-16.1-4.3-4.3-10-6.7-16.1-6.7s-11.8 2.4-16.1 6.7l-6.6 6.6-7.1 7.1-36 36-5.9 5.9-43.2 43.2c10.1 11.3 21.3 21.7 33.3 31l42.4-42.4 6-5.9zM189.5 411.3c23.8 0 46.2-9.3 63.2-26.3l127.8-127.8c16.9-16.9 26.2-39.2 26.3-62.8.1-12.9-2.7-25.5-7.9-36.9l-38.7 38.7c-.4 10.3-4.5 20.6-12.3 28.5l-127.7 127.6c-7.7 7.6-17.7 12-28.5 12.4l-38.7 38.7c11.4 5.1 23.7 7.9 36.5 7.9zM452.7 103.7l-47.7 47.7c6.5 13.2 10 27.9 9.9 43-.1 25.8-10.3 50.1-28.7 68.5l-127.7 127.8c-18.5 18.5-43 28.7-69 28.7-15 0-29.5-3.4-42.6-9.9l-43.3 43.3c41.2 29.7 91.8 47.2 146.4 47.2 138.1 0 250-111.9 250-250 0-54.6-17.5-105.2-47.3-146.3zM235.3 148.3c-1.1 0-2.1.4-2.9 1.3-4.4 4.4-3.5 19 2 32.6 4.4 11 10.5 17.9 15 17.9 1.1 0 2.1-.4 2.9-1.3 4.4-4.4 3.5-19-2-32.6-4.4-10.9-10.5-17.9-15-17.9zM102.7 366.4c-7.5-13.6-11.2-28.2-10.8-43.1.7-27.3 14.4-54.6 41-81.1l32.9-33.4.7-.8c.2-.2.4-.3.5-.5l.1-.1c2.1-1.9 4.8-2.9 7.5-2.9 4.5 0 8.9 2.5 13 7.4 3.2 3.8 6.1 8.9 8.5 14.8 2.9 7.1 4.7 14.8 5.1 21.6.5 8.4-1.1 14.6-4.8 18.3l-.3.3.2.4-30.4 30.9c-3.9 3.9-6.6 8.5-8.2 13.4 5.7-5.3 13.1-8.2 21-8.2 8.2 0 16 3.2 21.8 9 5.8 5.8 9 13.6 9 21.8 0 7.7-2.8 14.9-7.9 20.6 4.7-1.7 9.1-4.4 12.8-8.1l127.8-127.8c3.7-3.7 6.3-8 8-12.6l-1.8 1.8c-5.8 5.8-13.6 9-21.8 9-8.2 0-16-3.2-21.8-9-5.8-5.8-9-13.6-9-21.8 0-7.8 2.9-15.2 8.2-20.9-6.3 3-12.6 7.4-18.2 13.1l-.2.2-25.6 22.9c-.6 1.1-1.4 2.1-2.2 2.9-2.3 2.3-5.2 3.5-8.4 3.5-4.6 0-9.1-2.5-13.4-7.6-3.3-3.9-6.3-9.1-8.7-15.1-3-7.3-4.8-15.2-5.2-22.1-.5-8.6 1.1-14.9 4.9-18.7 1.4-1.4 3-2.4 4.8-2.9l18.1-16.1c18.3-17.9 42.5-27.8 68.1-27.8 15.4 0 30.2 3.5 43.5 10.2l49.1-49.1c-43.4-36.8-99.4-58.8-160.6-58.8-138.1 0-250 111.9-250 250 0 61.2 22 117.2 58.4 160.6l44.3-44.2zM416.8 63.8l-47.9 47.9-5.9 5.9-35.8 35.8-7.6 7.6-9.1 9.1c-4.3 4.3-6.7 10-6.7 16.1 0 6.1 2.4 11.8 6.7 16.1 4.3 4.3 10 6.7 16.1 6.7 6.1 0 11.8-2.4 16.1-6.7l9.5-9.5 7.2-7.2 35.7-35.7 5.9-5.9 46.8-46.8c-9.3-12.1-19.7-23.3-31-33.4zM262.6 185.5c.1.8.1 1.6.1 2.4l17.3-15.5c14.2-14.2 27.8-18.2 35.9-19.3l39.5-39.5c-11.6-5.4-24.3-8.2-37.5-8.2-23.5 0-45.7 9.1-62.5 25.6l-.1.1-13 11.5c2.2 1.3 4.3 3.1 6.3 5.5 3.3 3.9 6.3 9.1 8.7 15.1 3.1 7.5 4.9 15.4 5.3 22.3z"/></g></svg>