<svg xmlns="http://www.w3.org/2000/svg" viewBox="0 0 500 500" enable-background="new 0 0 500 500"><g fill="#222"><path d="M236 256.5c.8.3 1.4.5 1.4.5s16.8 5.7 25.7 4.3c8.9-1.3 13.3 9.2 10.1 8.4-3.3-.8-9.7 8.1-6.4 8.9 3.3.7 2.9 5.8 9.1 1.3 6.3-4.6 4.9-2.3 12.5 5.5s-7.1 4.3-7.1 4.3-4.8 5.8-8.9 4.8c-4.1-1-16.4 7.3-20.5 14.1-4.2 6.8-5 6.6-6.9.1-1.9-6.5-7.8-3.6-15.2 2.4-7.4 6 7.1 17.2 7.1 17.2l6.4 9.3s6.9-.1 10.6-.9c3.6-.9 1.7 3.8 12 11.4 10.3 7.6.3 6.1 10.1 11.9 9.8 5.7 10.4 14.5 10.4 14.5l-4.8 5.7-5.6 9s-5.3.5-9.6 8.1c-4.4 7.6-10.5 7.9-15.5 11-5.1 3.1-2.3 13.3-1 18.7 1.3 5.5-4.7-2-7.8-3.5-3.1-1.6-2.4-11.8-2.9-17-.5-5.3 4.7-16.1 6-21.8 1.4-5.7-1.5-8.1-4.5-14-2.9-5.9-2.8-6.7-3.1-16.2-.4-9.6 1.8-11.6 4.7-12.7 2.8-1-5.4-6.4-9.1-9-3.7-2.6-7-6.8-11.8-12.2-4.8-5.4-4.9-12.3-6.6-16.2-1.7-3.8 1-18.7 2.1-23.6 1.2-4.9 8.2-9.3 6.7-13.9-.7-2-3.9-3.2-7.8-4.1-27.6 11.9-49.3 36.1-56.7 67.5-4.3 18.2-3.1 36.3 2.4 52.9 3 1.9 10 6.2 13.2 7 4.2 1 15.9 2.8 17 11.9 1.1 9.1 6.1 11.4-3.3 18-1.1.8-2.1 1.5-3 2 12.4 12.4 28.3 21.7 46.7 26 52.6 12.4 105.4-20.3 117.8-73 12.4-52.7-20.3-105.4-72.9-117.8-13.8-3.4-27.7-3.4-41-.8zM250 0c-138.1 0-250 111.9-250 250s111.9 250 250 250 250-111.9 250-250-111.9-250-250-250zm-78.4 68.1s25 32.5 25 46.3c0 13.8-11.2 25-25 25s-25-11.2-25-25 25-46.3 25-46.3zm-98 278.3c-13.8 0-25-11.2-25-25s25-46.3 25-46.3 25 32.5 25 46.3c.1 13.8-11.1 25-25 25zm181.2 127c-66.7 0-120.8-54.1-120.8-120.8 0-66.7 120.8-223.4 120.8-223.4s120.8 156.7 120.8 223.4c0 66.7-54.1 120.8-120.8 120.8zm142.2-250.9c-24.4 0-44.1-19.8-44.1-44.1 0-24.4 44.1-81.7 44.1-81.7s44.1 57.3 44.1 81.7c0 24.3-19.8 44.1-44.1 44.1z"/></g></svg>