<svg xmlns="http://www.w3.org/2000/svg" viewBox="0 0 500 500" enable-background="new 0 0 500 500"><path fill="#222" d="M250 .2c-138.1 0-250 111.9-250 250 0 60.1 21.2 115.2 56.5 158.3 45.8-56 115.5-91.7 193.5-91.7 8.9 0 17.7.5 26.3 1.4 3.5.5 6.8 1 9.7 1.4.5 9.2-.2 18.3-2 27.1-1 4.6-2.3 9.1-4 13.5-1 .1-2.1.1-3.3.1-2.2 0-4.7-.1-7.4-.4-5.4-.5-11.6-1.6-18.5-2.8-6.9-1.2-14.5-2.6-22.7-3.5-4.1-.4-8.4-.7-12.8-.8-4.4 0-8.9.2-13.5.8-4.6.6-9.2 1.7-13.7 3.3-4.5 1.6-8.9 3.7-13 6.3-2.1 1.3-4 2.7-6 4.2l-2.3 1.9-1.1.5c-4.1 1.9-8.2 3.2-12.1 3.8-1.9.3-3.8.4-5.6.3-1.8-.1-3.5-.4-5-.8-3.1-.9-5.6-2.3-7.4-3.8-.9-.7-1.7-1.4-2.3-2.1-.6-.7-1.1-1.3-1.5-1.7s-.7-.9-.9-1.1c-.2-.3-.3-.4-.3-.4s.1.1.3.4c.2.3.4.7.8 1.2s.8 1.2 1.4 1.9c.6.7 1.3 1.5 2.2 2.3.9.8 1.9 1.7 3.1 2.5 1.2.8 2.6 1.5 4.2 2.1 1.6.6 3.4 1.1 5.3 1.3 1.9.3 3.9.3 6 .2 2.4-.1 4.8-.5 7.3-1.1 0 0 0 .1-.1.1l-1.2 1.3-1.2 1.3c-1.5 1.7-3.1 3.3-4.7 4.9-6.5 6.4-13.7 12.2-21.3 17.2-3.8 2.5-7.7 4.8-11.6 6.8-3.9 2.1-7.9 4-11.9 5.7-8 3.4-16 6.2-23.6 8.5-5 1.5-9.8 2.8-14.4 4.1l1.8 1.8c4.3-1 8.8-2.1 13.4-3.3 7.8-2 16-4.5 24.3-7.6 4.1-1.6 8.3-3.4 12.4-5.3 4.1-2 8.2-4.2 12.2-6.6 8-4.8 15.7-10.5 22.8-17 1.8-1.6 3.5-3.3 5.2-5l1.2-1.3 1.2-1.2 1.2-1.2.6-.6.6-.6 2.5-2.2c.9-.7 1.7-1.4 2.6-2 1.8-1.3 3.6-2.5 5.5-3.6 3.8-2.2 7.7-3.9 11.8-5.1 4.1-1.2 8.2-2 12.3-2.4 4.1-.4 8.2-.4 12.3-.2 4 .2 8 .7 11.9 1.2 7.7 1.2 15 2.8 21.9 4.4l1.5.3c-1.9.8-3.9 1.7-5.8 2.7-2.1 1.1-4.2 2.4-6.2 3.8s-4 3-5.8 4.8l-2.7 2.7c-.9.9-1.7 1.9-2.5 2.9-1.6 2-3 4-4.3 6.1-2.6 4.2-4.7 8.6-6.4 12.8l-1.3 3.2c-.2.5-.4 1-.6 1.6l-.2.4-.1.2v.1l-.1.2v.1l-.1.3-.2.5-.2.4s0 .1-.1.1h-.2c-.4-.1-.9-.2-1.4-.4-1-.3-2.1-.6-3.2-.9-1.1-.3-2.3-.5-3.4-.6-1.1-.1-2.3-.2-3.4-.2-2.2 0-4.4.4-6.3.9-2 .5-3.8 1.2-5.4 1.9-1.7.7-3.2 1.5-4.5 2.4-1.4.8-2.7 1.6-3.8 2.5-2.3 1.6-4.2 3.2-5.7 4.5-1.5 1.3-2.6 2.4-3.4 3.1l-.9.9-.3.3s.1-.1.4-.2c.2-.1.6-.3 1-.6.9-.5 2.3-1.3 4-2.2 1.7-.9 3.9-2 6.4-3.1 2.5-1.1 5.3-2.1 8.4-2.8.8-.2 1.6-.3 2.4-.4l2.4-.3c1.6-.1 3.3 0 4.9.2.8.1 1.6.3 2.4.6.8.2 1.6.6 2.4.9.8.4 1.7.8 2.6 1.2.5.2 1 .5 1.6.7l.4.2c-.1.1-.1.2-.2.4l-.6 1.5-.4.9-.7 1.6-.4.9c-.4.8-.7 1.6-1.1 2.3l-.2.3c-.3.7-.7 1.4-1 2-.1.2-.2.5-.4.7l-.9 1.6c-.1.3-.3.5-.5.8-.3.5-.5 1-.8 1.4l-.5.9-.9 1.4-.6.9-.9 1.3c-.2.3-.4.6-.6.8-.3.4-.6.9-1 1.3l-.6.8c-.4.6-.9 1.1-1.4 1.7l-.2.3c-.5.7-1.1 1.3-1.7 1.9l-.5.5-1.2 1.3-.7.7-1.2 1.1c-.4.4-.8.8-1.3 1.1l-1.1.9-2.1 1.8-2.6 2.1c-2.3 1.8-4.6 3.4-6.9 4.7-2.5 1.4-5.1 2.5-7.6 3-1.3.3-2.5.4-3.8.3-1.3 0-2.5-.2-3.7-.5-2.5-.6-4.9-1.6-7.3-2.5-1.2-.4-2.4-.9-3.6-1.2-1.2-.4-2.4-.6-3.6-.8-2.4-.4-4.6-.5-6.8-.3-2.1.2-4 .5-5.8 1-1.7.4-3.3 1-4.7 1.5-1.4.5-2.6 1-3.7 1.5-1 .5-1.9.9-2.6 1.3-.7.4-1.2.6-1.6.8-.4.2-.5.3-.5.3s.2-.1.6-.2c.4-.2.9-.4 1.7-.7.7-.3 1.6-.7 2.7-1 1.1-.4 2.3-.8 3.7-1.2 1.4-.4 3-.8 4.7-1.1 1.7-.3 3.6-.5 5.6-.5 2 0 4.1.3 6.2.8 2.1.6 4.3 1.4 6.6 2.5 1.1.5 2.3 1.1 3.5 1.7 1.2.6 2.5 1.1 3.9 1.6l2.1.6c.7.2 1.5.3 2.3.4.7.1 1.4.1 2.1.1-5.3 3.5-10.6 6.7-15.7 9.8l-4.7 2.9c1.2.5 2.4 1 3.5 1.5l2.8-1.5c5.8-3.1 11.9-6.3 18.1-9.9 6.2-3.6 12.6-7.6 18.7-12.1l2.3-1.7c.4-.3.7-.6 1.1-.8h.2c.4-.3.7-.6 1-.8.1-.1.2-.2.4-.3l.5-.4.2-.2c-.8 3-1.4 5.8-1.8 8.5l-.3 2.1c-2.2 5.8-3.7 11.5-4.7 17.1-.8 4.5-1.2 8.7-1.4 12.8l1.5.4c.4-4.1 1-8.4 1.9-12.8.4-1.8.8-3.5 1.3-5.3 0 .5-.1 1-.1 1.6l-.1 2.1c0 .7 0 1.3-.1 1.9-.1 1.2-.1 2.3-.1 3.2v4.3s.1-.7.2-1.9c.1-.6.1-1.4.2-2.3.1-.9.2-2 .4-3.1.1-.6.1-1.2.2-1.9.1-.6.2-1.3.3-2 .1-.7.2-1.4.3-2.2l.2-1.2.2-1.2c.2-1.4.5-2.9.8-4.4.5-1.3 1-2.6 1.6-3.9 2.4-5.5 5.6-11 9.3-16.1 3.7-5.2 7.9-10 12.5-14.6 2.3-2.3 4.6-4.5 7-6.6 2.4-2.1 4.9-4.2 7.4-6.2l1.9-1.5c.6-.5 1.3-1 1.9-1.4 1.3-1 2.5-1.9 3.8-2.8.6-.5 1.3-.9 1.9-1.3.3-.2.6-.4.9-.7l.5-.3.5-.3 1.9-1.3.5-.3.2-.2.2-.1 1-.6 3.9-2.5c.6-.4 1.3-.8 1.9-1.3.6-.4 1.2-.9 1.9-1.3 1.2-.8 2.5-1.7 3.7-2.6l1.8-1.3c.6-.4 1.2-.9 1.7-1.3.1-.1.2-.1.2-.2-1 2.3-2.1 4.7-3.3 7-2.3 4.5-4.9 9-7.9 13.3-3 4.3-6.5 8.4-10.3 12.3-1.9 1.9-3.8 3.8-5.9 5.6l-.2.2-.4.3-.6.4-.3.2-.3.2-1.2.9-2.4 1.9c-3.1 2.6-6.1 5.5-8.8 8.7-2.7 3.2-5.2 6.6-7.1 10.4-1 1.9-1.9 3.8-2.6 5.8-.7 2-1.3 4-1.8 6.1-.5 2.1-.7 4.1-.9 6.2-.2 2.1-.2 4.2-.1 6.2.2 4.1.9 8.1 1.9 12 0 .2.1.4.1.5 1.3.2 2.5.4 3.8.5l-.5-1.9c-.8-3.7-1.3-7.5-1.3-11.3 0-1.9.1-3.8.3-5.7.2-1.9.6-3.8 1-5.6.2-.9.5-1.9.8-2.8l.1.3c.7 1.2 1.5 2.3 2.3 3.2.9.9 1.8 1.7 2.6 2.4 1.8 1.5 3.5 2.7 5.1 4 1.6 1.3 3.1 2.6 4.4 3.9.7.7 1.3 1.3 1.8 2 .6.7 1.1 1.4 1.5 2 1.9 2.7 2.9 5.5 3.5 7.8.3 1.2.5 2.2.6 3.2 0 .2 0 .3.1.5h.3v-.5c0-.9-.1-2-.3-3.3-.2-1.2-.5-2.6-1-4s-1.1-2.9-2-4.4c-.4-.8-.9-1.5-1.4-2.3-.5-.8-1.1-1.5-1.7-2.3-1.3-1.5-2.7-2.9-4.2-4.4-1.5-1.4-3.2-2.9-4.8-4.4-.8-.8-1.6-1.6-2.2-2.4-.7-.8-1.3-1.7-1.7-2.6-.4-.9-.6-1.9-.6-2.8 0-1 .3-2 .7-3 0-.1.1-.2.1-.2l.3-.5c1.2-2.1 2.6-4.1 4.1-6 1.4-1.6 2.9-3.2 4.5-4.7 1.9-1.8 3.9-3.6 6-5.3 1-.9 2.1-1.7 3.2-2.6.5-.4 1.1-.8 1.6-1.3.4-.3.8-.6 1.1-.9l.6-.4c.4-.3.8-.6 1.3-.8l1.2-.9.6-.4.6-.4 1.2-.9 1.2-.9 1.2-.9 1.2-.9c1.5-1.3 3-2.6 4.4-3.9 2.9-2.7 5.5-5.6 7.9-8.5 2.4-3 4.5-6 6.4-9.1 1.9-3.1 3.6-6.2 5.1-9.2l.7-1.4c-.1 1.1-.1 2.2-.2 3.2-.1 3.9 0 7.7.1 11.6.1 3.9.3 7.7.5 11.6l.2 2.9v2.3c0 .8-.1 1.5-.2 2.3-.1.8-.3 1.5-.4 2.2-.4 1.5-1 2.9-1.7 4.2-.8 1.4-1.7 2.7-2.7 4-1 1.3-2.2 2.6-3.4 3.9-1.2 1.3-2.4 2.7-3.5 4.2-.6.8-1.1 1.6-1.5 2.5-.4.9-.8 1.9-1 3-.2 1-.2 2.1 0 3.1.1 1 .4 1.9.8 2.7.3.8.7 1.5 1.2 2.2.4.7.9 1.3 1.3 1.8.9 1.1 1.8 2 2.7 2.9.9.8 1.7 1.6 2.5 2.2.8.7 1.6 1.2 2.2 1.8 1.4 1 2.5 1.8 3.2 2.3.8.5 1.2.8 1.2.8s-.3-.4-.9-1c-.6-.7-1.5-1.7-2.6-3s-2.4-2.9-3.7-4.8c-.7-.9-1.3-2-1.9-3.1-.6-1.1-1.1-2.3-1.3-3.4-.1-.6-.2-1.1-.1-1.7 0-.5.1-1 .3-1.5.2-.5.5-1 .8-1.4.4-.5.8-1 1.3-1.5 1-1 2.3-2 3.6-3.1 1.4-1.1 2.8-2.2 4.3-3.6 1.5-1.3 2.9-2.8 4.2-4.5 1.3-1.7 2.5-3.7 3.4-5.8.9-2.1 1.5-4.4 1.9-6.6.1-.6.2-1.1.2-1.7l.1-.9v-.8l.2-2.9.4-6.6c2.8 5 6 9.9 9.2 14.7 2.6 3.9 5.3 7.9 7.8 11.9.2 1.8.1 3.6-.1 5.3-.2 1.9-.6 3.7-1.1 5.4-1 3.5-2.4 6.7-3.8 9.6-.7 1.5-1.4 2.8-2.1 4.2-.7 1.3-1.3 2.6-1.9 3.8-1.1 2.4-2 4.6-2.4 6.5-.2 1-.2 1.8-.2 2.6s.2 1.4.3 1.9c.2.5.3.8.5 1.1l.2.3c0 .1.1.1.1.1v-.1l-.1-.3c-.1-.2-.2-.6-.3-1.1-.1-.5-.2-1.1-.1-1.8 0-.7.2-1.5.4-2.4.3-.9.6-1.9 1.1-2.9.5-1 1.1-2.1 1.7-3.2 1.3-2.3 2.9-4.8 4.5-7.7 1.6-2.9 3.3-6.1 4.5-9.7.6-1.8 1.1-3.8 1.4-5.8.1-.4.1-.7.1-1.1l1.5 2.7c1.8 3.3 3.4 6.8 4.7 10.3.7 1.8 1.3 3.6 1.8 5.4.5 1.8.9 3.6 1.3 5.5.7 3.7 1 7.5.9 11.2l-.1 2c2.2-.6 4.4-1.2 6.6-1.9.3-4.1.1-8.3-.5-12.4v-.2c2.9 3.4 6.1 6.4 9.4 9.2l.4.3c1.6-.5 3.2-1.1 4.8-1.7-.8-.6-1.5-1.3-2.2-1.9-3.2-2.8-6.1-5.9-8.8-9.2-2.6-3.3-4.8-6.8-6.5-10.5-1.6-3.5-2.8-7.3-3.4-11 1.3 1.1 2.7 1.9 4 2.5 1.4.7 2.7 1.2 4 1.7 1.3.5 2.4.9 3.6 1.3 2.2.8 4.1 1.7 5.5 2.6 1.4.9 2.3 1.8 2.9 2.6l.4.5.3.4c.1.2.2.3.2.3s-.1-.1-.2-.3c0-.1-.1-.2-.2-.4l-.3-.5c-.5-.8-1.3-1.9-2.6-3.1-1.3-1.2-3.1-2.3-5.2-3.5l-3.3-1.8c-1.2-.6-2.3-1.3-3.5-2.1-1.1-.8-2.2-1.7-3.2-2.7-.9-1-1.7-2.2-2.1-3.5-.4-1.2-.6-2.4-.7-3.8 0-.7.1-1.5.2-2.2.1-1 .2-1.9.4-2.9l.1-.7.1-.7.1-.7.1-.4.1-.4c0-.1 0-.3.1-.4.1-.4.1-.8.2-1.1 0-.2 0-.3.1-.5l.1-.9v-.7l.1-1.1v-4.7c0-.3 0-.6-.1-.9 0-.2 0-.5-.1-.7l-.1-.9-.1-.7v-.3l-.1-.6c0-.2-.1-.4-.1-.7l-.2-.9-.1-.4c0-.1 0-.1-.1-.2-.1-.3-.2-.6-.2-1l-.1-.6-.3-1-.1-.5-.1-.3c-.1-.2-.2-.5-.2-.7l-.2-.5c-.1-.3-.2-.6-.3-1l-.1-.4v-.1l-.4-1-.2-.4-.5-1.1-.1-.3-.6-1.4c-.2-.5-.4-.9-.7-1.3l-.3-.5c-.1-.3-.3-.6-.4-.8-.1-.1-.2-.3-.2-.4-.1-.2-.2-.5-.4-.7l-.1-.1-1.2-2.1c-.1-.1-.1-.2-.2-.4-.1-.1-.1-.2-.2-.4l-.4-.7c-.3-.5-.6-.9-.8-1.4.4.3.8.7 1.3 1 4.2 3.2 8.8 6 13.8 8.7 5 2.7 10.3 5.1 15.7 7.6l8.1 3.7c2.7 1.3 5.4 2.6 8 4 1.3.7 2.5 1.4 3.7 2.2 1.2.8 2.3 1.6 3.3 2.4 1 .8 1.8 1.7 2.4 2.5.3.4.5.8.7 1.2.2.4.3.7.3 1.1.1.4.1.7 0 1.2-.1.4-.2.9-.4 1.4-.4 1-1 2-1.9 3.1-.8 1-1.8 2.1-2.8 3l-.8.7-.4.4-.4.4-.9.8c-.3.3-.6.6-.9.8-1.2 1.1-2.3 2.3-3.4 3.5-1.1 1.2-2.1 2.5-3.1 3.9-.5.7-1 1.4-1.4 2.1-.4.7-.9 1.5-1.2 2.2-.8 1.5-1.4 3.2-1.8 4.9-.4 1.7-.5 3.5-.4 5.3.2 1.7.6 3.4 1.2 4.9.6 1.5 1.4 2.9 2.2 4.2.6 1 1.3 1.9 2 2.8l4.1-1.8v-.1c-1.5-2.1-2.8-4.4-3.5-6.8-.3-1.2-.5-2.3-.5-3.5 0-1.2.2-2.3.6-3.5.4-1.1.9-2.3 1.6-3.4.3-.6.7-1.1 1.1-1.6.4-.5.8-1.1 1.3-1.6 1.8-2 3.8-3.9 6.1-5.7.6.8 1.2 1.5 1.9 2.2.6.7 1.3 1.4 2 2.2l1.9 2.2c.6.8 1.2 1.5 1.7 2.3.5.8.9 1.6 1.2 2.4.3.8.5 1.6.6 2.4.1.8.1 1.6 0 2.3-.1.7-.3 1.4-.5 1.9l-.1.2-.1.2-.1.2.9-.5c.3-.5.6-1.1.9-1.8.3-.8.5-1.6.6-2.6.1-.9 0-1.9-.2-3-.2-1-.5-2-.9-3s-.8-2-1.3-2.9c-1-1.9-2.1-3.7-3-5.3-.5-.8-.9-1.6-1.2-2.3-.1-.2-.2-.3-.2-.5 1.3-1.1 2.6-2.3 3.8-3.6 1.2-1.4 2.4-2.9 3.3-4.8.5-.9.9-2 1.1-3.1.3-1.1.4-2.3.3-3.5-.1-1.2-.3-2.4-.7-3.5-.4-1.1-.9-2.1-1.4-3-1.1-1.8-2.4-3.3-3.7-4.6-1.3-1.3-2.7-2.4-4.1-3.4-1.4-1-2.8-2-4.2-2.8-2.8-1.8-5.5-3.3-8.3-4.8-2.7-1.5-5.4-2.9-8-4.3-5.2-2.8-10.1-5.5-14.6-8.2-1.7-1.1-3.4-2.1-4.9-3.2 1.8-.8 3.5-1.8 5.3-2.9 1.3.1 2.6.3 3.8.5 2 .3 3.8.8 5.5 1.5 1.7.7 3.2 1.6 4.4 2.5 1.3 1 2.3 2.1 3.1 3.2.8 1.1 1.4 2.1 1.8 3 .4.9.7 1.6.9 2.1.1.2.2.4.2.6 0 .1.1.2.1.2v-.2c0-.1-.1-.3-.1-.6-.1-.5-.3-1.3-.6-2.2-.3-.9-.7-2.1-1.4-3.3-.6-1.2-1.5-2.4-2.6-3.6 2.8.8 5.7 1.4 8.6 2 4.1.7 8.2 1.2 12.3 1.5 0 0-9.1-2.3-12.1-3.2-12.2-3.9-12.5-6.4-18.2-10.9-2.3-1.9-8.3-6.8-10.4-8.4l-2-1.6-3.6-3.3-.2-.2c-1.8-1.8-3.4-3.6-4.8-5.4-1.5-1.9-2.8-3.7-3.9-5.6l-.7-1.2c.5-3.1 1-6.2 1.2-9.3.8-8.9.7-17.8-.4-26.6 53.6 13 100.4 43.3 134.3 84.7 35.3-43.1 56.5-98.2 56.5-158.3.1-138.7-111.8-250.6-249.9-250.6zm-45.9 445.2c-.8 1.2-1.5 2.4-2.3 3.7 0-.1 0-.1.1-.2.2-.5.5-1 .7-1.6l.3-.6.1-.1 1.2-1.3s-.1 0-.1.1zm10.4-35.1h.2s0 .1-.2 0c0 .1-.2.1-.4.1.2-.1.3-.1.4-.1zm54.6-28.6c-1.3 1.8-2.8 3.6-4.6 5.5l-1.3 1.4-.7.7-.7.7c-.5.5-1 .9-1.4 1.4l-1.5 1.4-1.5 1.4c-.5.5-1 .9-1.6 1.4l-3.3 2.8-1.7 1.4c-.6.5-1.2.9-1.7 1.4l-3.5 2.8-.9.7-.1.1h-.1l-.1.1-.2.2-.5.3c-.6.5-1.2.9-1.9 1.4l-.5.4-.5.4-.9.7-1.9 1.5c-1.2 1-2.5 2-3.8 3-.6.5-1.3 1-1.9 1.6-.6.5-1.2 1.1-1.9 1.6-2.5 2.1-4.9 4.4-7.3 6.7-2.4 2.3-4.7 4.7-7 7.1-1.8 1.9-3.5 3.9-5.1 6l.1-.2.6-.9 1-1.7.4-.8 1.1-2 .2-.4 1.2-2.3s0-.1.1-.1l.5-.9c.3-.5.5-1 .8-1.6l.5-1.1c.2-.5.5-1 .7-1.4.2-.4.4-.7.5-1.1.2-.5.4-.9.7-1.4l.2-.4.3-.7.8-1.6.2-.2c.3-.4.6-.7.9-1 .3-.3.5-.7.7-1 .2-.3.4-.6.6-1l.3-.5.2-.4v-.2l.1-.2.2-.4c.2-.5.5-1 .7-1.4l1.5-2.9c2-3.8 4.1-7.5 6.6-10.8 1.2-1.6 2.5-3.2 3.9-4.6l2.1-2.1c.7-.7 1.4-1.3 2.2-1.9 3-2.4 6.3-4.3 9.6-5.8 3.4-1.5 6.9-2.5 10.3-3.3 1.7-.4 3.4-.7 5.1-1 .8-.1 1.6-.2 2.4-.4l2.4-.3.9-.1c-.7 1.4-1.5 2.7-2.5 4zm37.8 35l.2.5.3.7.2.4c.1.3.2.6.3.8l.1.4.3.9.1.4c.1.3.2.5.2.8l.1.5.2.7.1.6c0 .2.1.4.1.7l.1.6.1.7.1.6.1.7c0 .2 0 .4.1.6v4.6l-.1 1v1l-.1.8-.1.8-.1.8-.3 3.2c-.1 1.2-.1 2.5-.1 3.7-2.1-3.6-4.2-7-6.2-10.3-1.9-3.1-3.7-6-5.3-9l-1.1-2.6c-.4-1-.8-2-1.3-3-.8-2-1.6-3.9-2.3-5.9-.7-1.9-1.4-3.9-1.9-5.8s-1-3.8-1.3-5.6l-.3-2.3.1-.4c.1-.4.3-.8.4-1.3l.4-1.3.3-1.3c.1-.4.2-.8.3-1.3v-.1l.1.1.1.1c.5.6 1 1.3 1.5 2l.1.2 1.9 2.4c.3.4.6.8 1 1.2l.8.9.9 1.2.7.9c.3.4.6.8 1 1.3l.6.9c.3.4.6.9 1 1.3.2.3.5.6.7 1l.2.3 1.2 1.8.5.7.2.3.5.8.2.3c.2.4.5.8.7 1.1v.1l.6 1.1.2.4.4.8.2.4c.1.2.2.5.4.7l.2.5c.2.5.3.7.4.9zm7.7-34.9c1.1.9 2.3 1.8 3.5 2.6 1.2.8 2.4 1.6 3.7 2.4-.4.2-.7.3-1 .4l-1-.1c-2.2-.3-4.4-.6-6.5-.9l-1.2-.2c.5-1.5 1.4-2.8 2.5-4.2zm-4.1-3.5c-.7.8-1.3 1.5-1.9 2.3-.1.1-.1.1-.1.2-1.1-2.1-1.7-4-2.1-5.6-.1-.4-.2-.8-.2-1.2 1.4 1.5 2.8 2.9 4.3 4.3zm-12.5-94.5c-2.3-5.1-4.8-10-7.6-14.7-1.2-2.1-2.5-4.2-3.8-6.3.6-.6 1.2-1.3 1.7-1.9 2.3-2.7 4.5-5.4 6.6-8.2 4.2-5.6 8-11.5 11.3-17.7 3.2-6.2 5.9-12.7 7.8-19.4 1.9-6.7 2.8-13.6 2.7-20.5-.5 6.9-2.1 13.6-4.5 19.9-2.4 6.4-5.6 12.4-9.3 18.1-3.7 5.7-7.9 11-12.4 16-2.3 2.5-4.6 4.9-7 7.3l-.8.7c-1.2-1.7-2.3-3.3-3.5-4.9-3.7-5.1-7.1-10.4-10.3-15.8-6.3-10.9-11.5-22.5-15.5-34.6-4-12.1-6.7-24.6-8.2-37.4-1.5-12.7-1.7-25.7-.7-38.6.5-6.5 1.3-12.9 2.4-19.3.6-3.2 1.2-6.4 1.9-9.6.7-3.2 1.5-6.3 2.5-9.4-1.3 3-2.3 6.1-3.3 9.2-1 3.1-1.9 6.3-2.7 9.4-1.6 6.3-3 12.8-4 19.3-2.1 13-2.9 26.2-2.5 39.4.4 13.2 2.2 26.5 5.3 39.5 3.1 13 7.6 25.7 13.4 37.9 2.8 5.9 5.9 11.6 9.2 17.2-4.6-1.8-9.4-2.9-14.2-3.5l-2.8-.3-.2-1c-.3-1.3-.6-2.6-1-3.9-.8-2.6-1.7-5.1-2.9-7.5-1.2-2.4-2.5-4.7-4.2-6.8-1.6-2.1-3.5-4-5.7-5.5 2 1.7 3.7 3.8 5.1 6 1.4 2.2 2.5 4.6 3.4 7 .9 2.4 1.6 4.9 2.1 7.5.2 1.3.5 2.5.6 3.8v.4h-2.3c-2.4 0-4.8-.2-7.2-.5-4.8-.6-9.5-1.6-14.2-3.2-4.6-1.6-9.1-3.6-13.3-6.1-4.2-2.5-8.3-5.4-12-8.6-1.9-1.6-3.7-3.3-5.4-5.2-.9-.9-1.7-1.8-2.5-2.8-.8-1-1.6-1.9-2.3-2.9.6 1.1 1.3 2.1 2.1 3.1.7 1 1.5 2 2.3 3 1.6 2 3.2 3.8 5 5.7 3.5 3.6 7.4 6.9 11.5 9.8 4.2 2.9 8.6 5.4 13.3 7.5 4.7 2 9.6 3.6 14.7 4.6 2.5.5 5.1.9 7.7 1.2 2.4.3 4.7.7 7.1 1.3 4.6 1.1 9 2.7 13 5 4 2.2 7.5 5.1 10.4 8.4l.5.6.2.5c2 4.7 3.8 9.4 5.3 14.2h-.1c-7.9 2.3-16.2 3.5-24.7 3.5h-2.5c-48.4-1.3-88.1-40.9-87.1-89.6 0-4.1.3-8.1.8-12 9.4-85.6 97.5-168.3 97.5-168.3s-4 69.6 47.7 110.5c20.3 16.4 33.4 41.6 33.4 69.8-.3 33.8-19.5 63.6-47.8 78.7z"/></svg>