<svg xmlns="http://www.w3.org/2000/svg" viewBox="0 0 500 500" enable-background="new 0 0 500 500"><path fill="#222" d="M358.8 211.9c-8.3 11-23.4 22.3-39.1 22.3h-59.800000000000004c-4.8 0-8.7-4-8.7-8.9s4-8.8 8.8-8.8h31.6c1.7-.3 3-1.8 3-3.6 0-2-1.6-3.6-3.6-3.6h-87.2l-33.4 29.3c-1.5 1.9-3.9 3.1-6.5 3.1-4.6 0-8.3-3.7-8.3-8.3 0-2.7 1.3-5 3.2-6.5l37.4-38s2.1-3.1 7.3-4.5c3.9-1.1 109.5-22.5 109.5-22.5l171.2.2c-35.6-94.7-127-162.1-234.2-162.1-138.1 0-250 111.9-250 250 0 12.2.9 24.2 2.6 36l142 26.7c8.3-11 23.4-22.3 39.1-22.3h59.800000000000004c4.8 0 8.7 4 8.7 8.9s-4 8.8-8.8 8.8h-31.6c-1.7.3-3 1.8-3 3.6 0 2 1.6 3.6 3.6 3.6h87.2l33.4-29.3c1.5-1.9 3.9-3.1 6.5-3.1 4.6 0 8.3 3.7 8.3 8.3 0 2.7-1.3 5-3.2 6.5l-37.4 38s-2.1 3.1-7.3 4.5c-3.9 1.1-109.5 22.5-109.5 22.5h-163.6c41.2 81.4 125.6 137.3 223.2 137.3 138.1 0 250-111.9 250-250 0-3.6-.1-7.2-.2-10.8l-141-27.3zm-178.5 37.6c-3.3 0-6.1-1.9-7.4-4.7.7-.4 32.8-28 32.8-28h16l-34.9 29.6c-1.5 1.9-3.9 3.1-6.5 3.1zm31.3-4.7c-1.5 1.9-3.9 3.1-6.5 3.1-3.3 0-6.1-1.9-7.4-4.7.7-.4 31.1-26.4 31.1-26.4h16l-33.2 28zm22 0s-3.3 2.6-5.9 2.6c-3.3 0-6.1-1.9-7.4-4.7.5-.3 16.8-14.4 26.8-23-.7 1.5-1.1 3.2-1.1 4.9 0 4.5 1.8 6.2 3.4 8.2l-15.8 12zm20.5 46.9l15.7-12s3.3-2.6 5.9-2.6c3.3 0 6.1 1.9 7.4 4.7-.5.3-16.8 14.4-26.8 23 .7-1.5 1.1-3.2 1.1-4.9 0-4.5-1.7-6.1-3.3-8.2zm4.5 16l33.2-27.9c1.5-1.9 3.9-3.1 6.5-3.1 3.3 0 6.1 1.9 7.4 4.7-.7.4-31.1 26.4-31.1 26.4l-16-.1zm39.2.1h-16l34.9-29.6c1.5-1.9 3.9-3.1 6.5-3.1 3.3 0 6.1 1.9 7.4 4.7-.8.4-32.8 28-32.8 28z"/></svg>