<svg xmlns="http://www.w3.org/2000/svg" viewBox="0 0 500 500" enable-background="new 0 0 500 500"><g fill="#222"><path d="M2.3 283.6c18.1-1.2 32.4-15.7 32.4-33.6 0-17.8-14.3-32.4-32.4-33.6-1.5 11-2.3 22.2-2.3 33.6 0 11.4.8 22.6 2.3 33.6zM413.2 63.4c26.3 56.6 40.1 116.8 41.1 179.2 19.6 1.1 35.2 16.9 35.2 36.2 0 20-16.8 36.3-37.4 36.3-.8 0-1.6 0-2.5-.1-6.2 42-18.4 82.7-36.5 121.7 55.3-47.4 86.9-115.2 86.9-186.7 0-71.5-31.6-139.3-86.8-186.6z"/><ellipse cx="452.2" cy="278.8" rx="23.7" ry="22.9"/><ellipse cx="274.8" cy="146.5" rx="68.3" ry="66.2"/><path d="M452.2 242.5h.3c-1-63.5-15.4-124.7-42.7-182.1-22.7-18.8-48.4-33.5-76.2-43.6-29-10.6-59.4-15.9-90.6-15.9-22.7 0-45.2 2.9-66.9 8.5 26.3 19.6 49.2 43.3 67.9 69.8 9.4-4.1 19.8-6.3 30.8-6.3 41.9 0 76 33 76 73.6 0 33.3-22.9 61.5-54.3 70.6 1.2 10.9 1.8 21.9 1.8 33 0 48.2-11.3 94.3-33.7 137.1-21 40.2-51.6 75.9-88.5 103.5 21.7 5.7 44.2 8.5 66.9 8.5 31.1 0 61.6-5.3 90.5-15.9 27.8-10.2 53.5-24.8 76.2-43.6 19-39.9 31.7-81.7 38.1-124.8-18.6-2.1-33-17.4-33-36-.1-20.2 16.7-36.4 37.4-36.4zm-116.1 97.5c1.7-1.6 5.1.2 7.6.2 2.6 0 4.8-.6 6.5 1 1.7 1.6 3.5 3.9 3.5 6.4 0 2.5-1.1 5.5-2.8 7.1-1.7 1.6-4.7 2.8-7.2 2.8-2.6 0-3.9-2.9-5.6-4.5-1.7-1.6-2.9-2.9-2.9-5.4 0-2.5-.8-5.9.9-7.6zm-32.8 108.2c-1 1.7-4.4 2.3-6.4 2.8s-4.8.6-6.5-.3c-3.4-1.9-1.8-6.4.2-9.7.9-1.5 2.5-3.1 3.6-4.6 1.3-1.8 4-3.1 5.9-2 1.7 1 2 5 2.6 6.9.5 1.9 1.6 5.2.6 6.9zm20.2-2.5c-1.4 1.3-3.8 2.3-5.9 2.3-2.1 0-3.2-2.4-4.6-3.7-1.4-1.4-2.4-2.4-2.4-4.5s-.7-4.9.7-6.2c1.4-1.3 4.2.1 6.3.1 2.1 0 4-.5 5.4.8 1.4 1.4 2.9 3.2 2.9 5.3-.1 2.1-1 4.6-2.4 5.9zm1.5-24c-2.1 2.4-4.7 5.3-7.8 5.6-3 .2-8.4.6-10.9-1.5s-.4-7.6-.6-10.5c-.1-1.4.2-3.8-.4-5.8-.7-2.1-4.6-5.9-3.5-7.2 1.1-1.2 5.4-2.6 7.6-2.6 2.1-.1 4-1.3 5.5-1.4 3-.2 6.5 5.4 8.9 7.5 2.5 2.1 2.9 5 3.1 7.9.4 2.9.3 5.6-1.9 8zm-1.9-44.6c-2-1.7-3.6-3.1-4-5.3-.4-2.4-1.1-5.6.5-7.5 1.6-1.9 5-2 7.5-2 2.3 0 5.4.1 7.4 1.8s1.8 4.8 2.2 7c.4 2.4-.1 4.1-1.7 6-1.6 1.9-3.4 4.3-5.9 4.2-2.3 0-4-2.5-6-4.2zm21.2 45.1c-2.3 2.6-6.7 3.5-9.4 1.3s-4.2-8.2-1.9-10.8c1.2-1.3 3.6-1 5.7-.9 2 0 4.3-.1 5.6 1 2.7 2.2 2.3 6.8 0 9.4zm4.2-21.4c-2.1 2.4-3.4 4.3-6.5 4.5-3 .2-4.7-1.3-7.2-3.4-2.5-2.1-3.2-3.4-3.4-6.3-.2-2.9-3.1-7.3-1-9.8 2.1-2.4 6.8-2.1 9.9-2.3 3-.2 6.8-.3 9.3 1.8 2.5 2.1 4.4 5.6 4.6 8.5.2 3-3.6 4.6-5.7 7zm5.4-28c-1.4 1.5-2.6 3.5-4.5 3.7-1.9.1-3.4-1.7-5-3.1-1.6-1.3-2.7-2.5-2.9-4.3-.2-1.9-.6-4.4.8-5.9s4-1.8 5.9-1.9c1.9-.1 4.4-.2 6 1.1 1.6 1.3 1.3 3.8 1.4 5.7.2 1.8-.4 3.2-1.7 4.7zM126.1 391c-8.1 0-11.2-3.3-12.4-6-2.4-5.7 1.4-14 10.6-22.9l2.1-2c1.7-11.2 11.2-19.9 22.9-20.9l3.4-.1c2.4.1 4.6.5 6.8 1.2 4.3-1.6 8.5-2.7 12.3-3.3 13.2-26.7 20.5-56.3 20.5-87.1 0-79.3-48.2-151.3-123-183.5-20.3 18.2-37.5 39.2-50.9 62.5l6.3 18.7 29.9-9.3v30.5h31.5l-9.6 29 29.9 9.5-18.4 24.7 25.4 18-25.4 18 18.5 24.7-29.9 9.5 9.6 29h-31.5v30.5l-29.9-9.3-6.3 18.7c13.4 23.4 30.5 44.4 50.9 62.5 24.5-10.6 46.1-25.4 64.1-43.3-2.7.4-5.1.7-7.4.7zM126.4 367.1c-7.5 7.8-9 13.4-7.9 15.9 1.1 2.6 5.3 3 7.7 3 3.3 0 7.1-.6 11.1-1.8-5.9-3.9-10-10-10.9-17.1zM176.7 360.5c7.5-7.8 9-13.4 7.9-15.9-1.1-2.6-5.3-3-7.7-3-3.3 0-7.1.7-11.1 1.8 5.8 3.8 9.9 10 10.9 17.1zM294.6 217.6c-6.3 1.7-13 2.5-19.8 2.5-41.9 0-76-33-76-73.6 0-29.3 17.8-54.7 43.4-66.5-18.8-26.6-42-50.3-68.4-69.9-38 10.3-73.5 29.3-103 55 75 32.7 123.3 105.1 123.3 184.9 0 30.6-7.1 60.2-20.2 86.8 1-.1 2-.2 3-.2 8.1 0 11.2 3.3 12.4 6 2.4 5.7-1.4 14-10.6 22.9l-2.1 2c-6.8 6.1-15.3 11.6-23.8 15.8-1.2.6-2.3 1.1-3.5 1.6l-2.2 1c.7-.2 1.5-.4 2.2-.7 1.2-.3 2.3-.7 3.4-1.1 8.6-3 17-7.4 24.6-12.6-3.3 11-12.9 18.5-24.8 17.7l-3.4-.4c-1.9-.4-3.6-.9-5.3-1.7l-.3.1c-2.3.8-4.6 1.5-6.8 2.1-18.4 18.9-40.7 34.4-66 45.5 29.4 25.8 65 44.8 103 55 37.2-27.5 68-63.4 89.1-103.7 22.2-42.4 33.4-88.3 33.4-136.2.2-10.8-.4-21.7-1.6-32.3z"/></g></svg>