<svg xmlns="http://www.w3.org/2000/svg" viewBox="0 0 500 500" enable-background="new 0 0 500 500"><path fill="#222" d="M250 .1c-138.1 0-250 112-250 250 0 74.1 32.2 140.6 83.4 186.4l6.1-99.6-.7 5.3-17.8 29-.8-.4 17.8-41.7c-1-.8-1.7-1.9-1.9-3.3-.2-1.3.2-2.5.9-3.5l-9.7-7.6-16.2-29.9.7-.5 27.4 36.3c.4-.2.8-.3 1.2-.3 2.2-.3 4.3 1 5.1 2.9l11.4-4.6 34 .9.1.8-45 5.6c-.3 1.8-1.5 3.3-3.2 4 0 0 4 98.7 4.6 118.3 20.4 15.8 43.4 28.5 68.1 37.3l4.4-71.9-.6 4.2-14.2 23-.6-.3 14.1-33.2c-.8-.6-1.3-1.5-1.5-2.6-.1-1 .2-2 .7-2.8l-7.7-6-12.9-23.8.6-.4 21.7 28.8c.3-.1.6-.2 1-.3 1.8-.2 3.4.8 4.1 2.3l9-3.7 27 .7v.7l-35.8 4.4c-.2 1.4-1.2 2.7-2.6 3.2 0 0 2.2 53.6 3.2 81 15 4.7 30.5 7.9 46.6 9.7l18.8-301.5-2 14.7-49.3 80.2-2.1-1 49-115.6c-2.7-2.2-4.7-5.4-5.2-9.1-.4-3.6.6-7 2.5-9.7l-26.7-21-44.8-82.8 1.9-1.3 75.7 100.3c1.1-.4 2.2-.7 3.4-.9 6.1-.8 11.8 2.7 14.2 8l31.5-12.7 94.1 2.6.1 2.3-124.7 15.4c-.7 5-4.2 9.3-8.9 11 0 0 10.5 259.5 12.7 322.5 25.8-1.2 50.5-6.4 73.7-14.9l12.3-199.1-1.4 9.7-32.7 53.2-1.4-.7 32.5-76.6c-1.8-1.4-3.1-3.6-3.4-6-.3-2.4.4-4.7 1.7-6.4l-17.7-13.8-29.7-54.9 1.3-.9 50.1 66.5c.7-.3 1.5-.5 2.3-.6 4.1-.5 7.8 1.8 9.4 5.3l20.8-8.4 62.4 1.7.1 1.5-82.6 10.2c-.5 3.3-2.8 6.1-5.9 7.3 0 0 5.8 144.8 7.9 200.9 81.9-41.2 138.1-125.9 138.1-223.8 0-138-111.9-250-250-250z"/></svg>