<svg xmlns="http://www.w3.org/2000/svg" viewBox="0 0 500 500" enable-background="new 0 0 500 500"><path fill="#222" d="M250 0c-138.1 0-250 111.9-250 250 0 98.6 57.1 183.8 139.9 224.5-4.5-4.5-8.4-10.9-11.2-19.8 0 0 36.1-21.8 57.1 26.1 0 0-10.3 4.4-22.4 3.7 11.6 4.3 23.6 7.7 36 10.3.2-3.5.7-6.6 1.5-9.4-1.9-2.6-3.5-5.6-4.8-8.9-4.2 2.2-7.2 3.2-7.2 3.2-8.4-27 0-41.5 9.4-49.1l-1.5-3c-9.1 10.4-21.9 14.5-21.9 14.5-15.5-49.9 26.1-57.1 26.1-57.1 2.3 5.2 3.6 10 4.2 14.4 15.7 1.7 40.5 11.4 43 56 0 0-14.9.7-29.4-6-.3 1.3-.6 2.5-1 3.6 12.9 5.1 26.6 17.6 29.8 46.9h4.8c3.2-29.3 16.9-41.8 29.8-46.9-.4-1.2-.7-2.4-1-3.6-14.4 6.7-29.4 6-29.4 6 2.5-44.6 27.4-54.3 43-56 .6-4.4 1.9-9.2 4.2-14.4 0 0 41.6 7.2 26.1 57.1 0 0-12.9-4.1-21.9-14.5-.5 1-1 2.1-1.5 3 9.4 7.6 17.8 22.1 9.4 49.1 0 0-3.1-1-7.2-3.2-1.3 3.3-3 6.3-4.9 8.9.8 2.8 1.3 5.9 1.5 9.4 12.3-2.5 24.4-6 36-10.3-12.1.7-22.4-3.7-22.4-3.7 21-47.9 57.1-26.1 57.1-26.1-2.8 8.9-6.7 15.3-11.2 19.8 82.9-40.7 140-125.9 140-224.5 0-138.1-111.9-250-250-250zm148.6 248.5c21.7 41.4-21.9 58.8-21.9 58.8-19.1-48.7 21.9-58.8 21.9-58.8zm-57.3 23.5s41.6 7.2 26.1 57.1c0 0-44.8-14.3-26.1-57.1zm-14.1 37.7s41.6 7.2 26.1 57.1c.1-.1-44.7-14.3-26.1-57.1zm-180.6 57c-15.5-49.9 26.1-57.1 26.1-57.1 18.7 42.9-26.1 57.1-26.1 57.1zm12.1-94.7c18.7 42.8-26.1 57.1-26.1 57.1-15.4-50 26.1-57.1 26.1-57.1zm-57.3-23.5s40.9 10.1 21.9 58.8c.1 0-43.6-17.4-21.9-58.8zm-28.8 55.5s36.1-21.8 57.1 26.1c0 .1-43.2 18.6-57.1-26.1zm14.1 37.7s36.1-21.8 57.1 26.1c-.1 0-43.3 18.6-57.1-26.1zm14 37.7s36.1-21.8 57.1 26.1c0 0-43.2 18.5-57.1-26.1zm71.1 63.8s-43.2 18.5-57.1-26.1c0 0 36.1-21.8 57.1 26.1zm-11.1-38.8c-15.4-49.9 26.1-57.1 26.1-57.1 18.7 42.9-26.1 57.1-26.1 57.1zm31.5-55.3s52.1-9.8 55.8 55.8c0 0-59 2.9-55.8-55.8zm0-50.5s52.1-9.8 55.8 55.8c0 0-59 2.8-55.8-55.8zm0-50.6s52.1-9.8 55.8 55.8c0 0-59 2.9-55.8-55.8zm0-50.5s52.1-9.8 55.8 55.8c0 0-59 2.8-55.8-55.8zm0-50.6s52.1-9.8 55.8 55.8c0 0-59 2.9-55.8-55.8zm57.2 26.1c-43.8-49 0-78.9 0-78.9 43.8 39.2 0 78.9 0 78.9zm2.5 231.9c3.7-65.6 55.8-55.8 55.8-55.8 3.3 58.7-55.8 55.8-55.8 55.8zm0-50.5c3.7-65.6 55.8-55.8 55.8-55.8 3.3 58.6-55.8 55.8-55.8 55.8zm0-50.6c3.7-65.6 55.8-55.8 55.8-55.8 3.3 58.7-55.8 55.8-55.8 55.8zm0-50.5c3.7-65.6 55.8-55.8 55.8-55.8 3.3 58.6-55.8 55.8-55.8 55.8zm0-50.6c3.7-65.6 55.8-55.8 55.8-55.8 3.3 58.7-55.8 55.8-55.8 55.8zm61.3 144.6s41.6 7.2 26.1 57.1c0 0-44.8-14.2-26.1-57.1zm15 95.9c21-47.9 57.1-26.1 57.1-26.1-13.9 44.6-57.1 26.1-57.1 26.1zm14-37.7c21-47.9 57.1-26.1 57.1-26.1-13.9 44.6-57.1 26.1-57.1 26.1zm14.1-37.7c21-47.9 57.1-26.1 57.1-26.1-13.9 44.7-57.1 26.1-57.1 26.1zm14-37.6c21-47.9 57.1-26.1 57.1-26.1-13.9 44.6-57.1 26.1-57.1 26.1z"/></svg>