<svg xmlns="http://www.w3.org/2000/svg" viewBox="0 0 96 96" enable-background="new 0 0 96 96"><path fill="#222" d="M47.4 0c-26.5.4-47.7 22.1-47.4 48.6.4 26.5 22.1 47.7 48.6 47.4 26.5-.4 47.7-22.1 47.4-48.6-.4-26.5-22.1-47.7-48.6-47.4zm5.3 16c4.9 0 6.3 2.8 6.3 6.1 0 4-3.2 7.8-8.8 7.8-4.6 0-6.8-2.3-6.7-6.2 0-3.3 2.8-7.7 9.2-7.7zm-12.5 62c-3.3 0-5.8-2-3.4-10.9l3.8-15.8c.7-2.5.8-3.5 0-3.5-1 0-5.3 1.7-7.9 3.5l-1.7-2.8c8.1-6.8 17.4-10.7 21.4-10.7 3.3 0 3.9 3.9 2.2 10l-4.4 16.6c-.8 2.9-.4 3.9.3 3.9 1 0 4.3-1.2 7.5-3.7l1.9 2.5c-7.8 7.9-16.4 10.9-19.7 10.9z"/></svg>