<svg xmlns="http://www.w3.org/2000/svg" viewBox="0 0 96 96" enable-background="new 0 0 96 96"><path fill="#222" d="M47.2-.5c-26.5 0-48 21.5-48 48s21.5 48 48 48 48-21.5 48-48-21.5-48-48-48zm-11.8 67.9h-9.7v-31.3h9.7v31.3zm-4.9-35.1c-3.1 0-5.1-2.2-5.1-4.9 0-2.8 2-4.9 5.2-4.9 3.1 0 5.1 2.1 5.1 4.9.1 2.7-1.9 4.9-5.2 4.9zm40.4 35.1h-9.7v-17.4c0-4-1.4-6.8-4.9-6.8-2.7 0-4.3 1.9-5 3.6-.3.7-.3 1.6-.3 2.5v18h-9.7v-21.2c0-3.9-.1-7.2-.3-10h8.4l.4 4.3h.2c1.3-2 4.4-5.1 9.7-5.1 6.4 0 11.2 4.3 11.2 13.5v18.6z"/></svg>