<svg xmlns="http://www.w3.org/2000/svg" viewBox="0 0 337.3 83.2" enable-background="new 0 0 337.3 83.2"><path fill="#fff" d="M14.3 12.1c1.7-4.8 4.7-8.8 8.8-11.6-6.5.7-19.6 3.9-19.6 3.9-8.3 25.4-1.6 52.3 16 70.7 6.4 6.3 11.9 7.7 14.4 8 .9.1 1.4.1 1.4.1.5 0 1 0 1.4-.1 7.8-.8 13.7-6.1 13.7-14.5 0-8.7-5.5-13-12.3-16.8-1.6-.9-3.3-1.8-5-2.6-9.9-5.2-20.4-11-20.4-27.3 0-3.6.6-6.8 1.6-9.8zM67.1 4.4c-2.5-.7-4.9-1.3-7.4-1.8.1 2.1.3 4.2.5 6.4s.4 4.4.7 6.7l-3.6.6c-.2-1.4-.8-4.2-.8-4.2-1.8-5.8-5.8-10.7-11.6-11.9-1.1-.1-2.3-.2-3.4-.2-9.7.3-15.1 6.2-15.1 16.2 0 8.5 6.1 12.6 13.5 16.4 9.8 5 21.7 9.6 24.5 23.1 7-15.7 8.5-33.9 2.7-51.3"/><g fill="#fff"><path d="M111.1 29.1c0-.9-.3-1.6-.8-2.1s-1.1-1-1.9-1.4c-.8-.4-1.6-.8-2.5-1.2-.9-.4-1.7-.8-2.5-1.3s-1.4-1.2-1.9-1.9c-.5-.8-.8-1.7-.8-2.9 0-1.7.6-3 1.7-4s2.8-1.5 4.9-1.5c1.2 0 2.4.1 3.4.3 1 .2 1.8.4 2.4.7l-.8 2.3c-.5-.2-1.2-.5-2.1-.7s-1.9-.3-3.1-.3c-1.3 0-2.4.3-3 .9-.7.6-1 1.3-1 2.1s.3 1.5.8 2 1.1 1 1.9 1.4c.8.4 1.6.8 2.5 1.2.9.4 1.7.9 2.5 1.4.8.5 1.4 1.2 1.9 1.9.5.8.8 1.7.8 2.8 0 .9-.2 1.7-.5 2.5-.3.7-.8 1.4-1.4 1.9-.6.5-1.4.9-2.3 1.2-.9.3-1.9.4-3.1.4-1.5 0-2.8-.1-3.8-.4-1-.2-1.8-.5-2.3-.8l.9-2.3c.5.3 1.2.5 2.1.8.9.2 1.9.4 3.1.4.7 0 1.3-.1 1.9-.2.6-.1 1.1-.3 1.5-.6.4-.3.8-.7 1-1.1.3-.3.5-.9.5-1.5zM124.4 13.2h2.5v21.4h-2.5v-21.4zM142.9 20.6l-1.6-3.1h-.1l.3 3.1v14h-2.5v-21.7h1.3l10.2 14.3 1.6 2.9h.2l-.3-2.9v-14h2.4v21.7h-1.4l-10.1-14.3zM173 23.9h7.2v9.4c-.3.2-.7.5-1.2.7-.5.2-.9.4-1.5.5s-1.1.2-1.6.3-1.1.1-1.6.1c-1.4 0-2.6-.2-3.8-.7-1.1-.4-2.1-1.1-3-2-.8-.9-1.5-2.1-2-3.4-.5-1.4-.7-3-.7-4.9 0-2 .3-3.7.9-5.1.6-1.4 1.3-2.5 2.2-3.4.9-.9 1.9-1.5 3.1-1.9 1.1-.4 2.3-.6 3.4-.6 1.2 0 2.2.1 3 .2.8.1 1.5.3 2 .5l-.6 2.3c-1-.5-2.4-.7-4.2-.7-.9 0-1.7.1-2.5.4-.8.3-1.6.8-2.3 1.5-.7.7-1.2 1.6-1.6 2.7-.4 1.1-.6 2.5-.6 4.2 0 1.5.2 2.8.5 3.9s.8 2 1.4 2.7c.6.7 1.4 1.3 2.2 1.6.9.4 1.8.5 2.9.5 1.3 0 2.4-.3 3.3-.8v-6l-5-.6v-1.4zM203 13.2h2.4v14.3c0 1.3-.2 2.4-.5 3.3-.3.9-.8 1.7-1.4 2.3s-1.4 1-2.2 1.3c-.9.3-1.8.4-2.9.4-2.5 0-4.4-.6-5.7-1.7-1.3-1.1-1.9-2.9-1.9-5.2v-14.7h2.5v13.6c0 1.1.1 2 .3 2.7.2.7.5 1.3 1 1.8s1 .8 1.6 1c.6.2 1.4.3 2.2.3 1.6 0 2.8-.5 3.5-1.4.7-.9 1.1-2.4 1.1-4.5v-13.5zM229.5 34.6h-12.6v-21.4h2.5v19.1h10.1v2.3zM246.8 28.6h-7.8l-2.1 5.9h-2.5l8.1-21.7h1.2l8.1 21.7h-2.8l-2.2-5.9zm-7-2.1h6.3l-2.4-6.5-.8-3.2-.8 3.3-2.3 6.4zM260.7 13.4c.8-.1 1.7-.3 2.7-.3 1-.1 1.9-.1 2.8-.1.9 0 1.8.1 2.7.3.8.2 1.6.5 2.2 1 .6.5 1.2 1.1 1.5 1.8.4.8.6 1.7.6 2.7 0 1.7-.5 3-1.4 4.1-.9 1-2.1 1.7-3.5 2.1l1.5 1.1 5.3 8.5h-3l-5.9-9.2-3-.5v9.7h-2.5v-21.2zm5.5 1.8h-1.6c-.3 0-.5 0-.7.1l-.6.1v7.9h2.4c1.4 0 2.6-.3 3.5-1 .9-.7 1.4-1.8 1.4-3.2 0-1.1-.4-2-1.1-2.7-.9-.9-1.9-1.2-3.3-1.2zM285.7 13.2h2.5v21.4h-2.5v-21.4zM314.1 15.5h-6.7v19.1h-2.5v-19.1h-6.7v-2.3h15.8v2.3zM327.8 26.1l-7-12.9h3l5 9.3.5 1.9.6-1.9 4.8-9.3h2.7l-7 12.8v8.5h-2.5v-8.4zM113.7 49.8h2.4v14.3c0 1.3-.2 2.4-.5 3.3-.3.9-.8 1.7-1.4 2.3s-1.4 1-2.2 1.3c-.9.3-1.8.4-2.9.4-2.5 0-4.4-.6-5.7-1.7-1.3-1.1-1.9-2.9-1.9-5.2v-14.7h2.5v13.6c0 1.1.1 2 .3 2.7.2.7.5 1.3 1 1.8s1 .8 1.6 1c.6.2 1.4.3 2.2.3 1.6 0 2.8-.5 3.5-1.4.7-.9 1.1-2.4 1.1-4.5v-13.5zM131.4 57.2l-1.6-3.1h-.1l.3 3.1v14h-2.4v-21.7h1.3l10.2 14.3 1.6 2.9h.2l-.3-2.9v-14h2.4v21.7h-1.3l-10.3-14.3zM154.9 49.8h2.5v21.4h-2.5v-21.4zM175 64.5l.7 3.2.8-3.3 5.2-14.6h2.5l-8.1 21.7h-1.1l-8.2-21.7h2.8l5.4 14.7zM193.1 49.8h11.6v2.3h-9.1v7h8.3v2.3h-8.3v7.6h9.2v2.3h-11.8v-21.5zM215.7 50c.8-.1 1.7-.3 2.7-.3 1-.1 1.9-.1 2.8-.1.9 0 1.8.1 2.7.3.8.2 1.6.5 2.2 1 .6.5 1.2 1.1 1.5 1.8.4.8.6 1.7.6 2.7 0 1.7-.5 3-1.4 4.1s-2.1 1.7-3.5 2.1l1.5 1.1 5.3 8.5h-3l-5.9-9.2-3-.5v9.7h-2.5v-21.2zm5.5 1.8h-1.6c-.3 0-.5 0-.7.1l-.6.1v7.9h2.4c1.4 0 2.6-.3 3.5-1 .9-.7 1.4-1.8 1.4-3.2 0-1.1-.4-2-1.1-2.7-.9-.9-2-1.2-3.3-1.2zM249.8 65.8c0-.9-.3-1.6-.8-2.1s-1.1-1-1.9-1.4c-.8-.4-1.6-.8-2.5-1.2s-1.7-.8-2.5-1.3-1.4-1.2-1.9-1.9c-.5-.8-.8-1.7-.8-2.9 0-1.7.6-3 1.7-4 1.2-1 2.8-1.5 4.9-1.5 1.2 0 2.4.1 3.4.3 1 .2 1.8.4 2.4.7l-.8 2.3c-.5-.2-1.2-.5-2.1-.7-.9-.2-1.9-.3-3.1-.3-1.3 0-2.3.3-3 .9-.7.6-1 1.3-1 2.1s.3 1.5.8 2 1.1 1 1.9 1.4c.8.4 1.6.8 2.5 1.2.9.4 1.7.9 2.5 1.4s1.4 1.2 1.9 1.9c.5.8.8 1.7.8 2.8 0 .9-.2 1.7-.5 2.5-.3.7-.8 1.4-1.4 1.9-.6.5-1.4.9-2.3 1.2s-1.9.4-3.1.4c-1.5 0-2.8-.1-3.8-.4-1-.2-1.8-.5-2.3-.8l.9-2.3c.5.3 1.2.5 2.1.8.9.2 1.9.4 3.1.4.7 0 1.3-.1 1.9-.2.6-.1 1.1-.3 1.5-.6.4-.3.8-.7 1-1.1.3-.4.5-.9.5-1.5zM263.2 49.8h2.5v21.4h-2.5v-21.4zM291.5 52.1h-6.7v19.1h-2.5v-19.1h-6.7v-2.3h15.8v2.3zM305.2 62.7l-7-12.9h3l5 9.3.5 1.9.6-1.9 4.8-9.3h2.7l-7 12.8v8.5h-2.5v-8.4z"/></g><path d="M49.4 20.2c-.1.1-.2.3-.4.4l.4-.4z"/></svg>