<svg xmlns="http://www.w3.org/2000/svg" viewBox="0 0 458.7 126.3" enable-background="new 0 0 458.7 126.3"><path fill="#fff" d="M75 29.1l-.6.6.6-.6zM21.7 18.4c2.6-7.4 7.2-13.3 13.3-17.6-9.7 1.1-29.6 5.8-29.6 5.8-12.7 38.5-2.4 79.4 24.3 107.4 9.8 9.6 18.1 11.7 21.8 12.2 1.4.2 2.1.1 2.1.1l2.2-.1c11.8-1.2 20.8-9.3 20.8-22.1 0-13.2-8.4-19.8-18.7-25.5-2.5-1.4-5-2.7-7.6-4-15-7.8-31-16.5-31-41.3 0-5.4.9-10.4 2.4-14.9zM101.9 6.6c-3.8-1.1-7.5-2-11.2-2.8.1 3.2.4 6.5.7 9.8.3 3.4.7 6.8 1.1 10.1l-5.5 1c-.2-2.2-1.3-6.4-1.3-6.4-2.6-8.7-8.7-16.1-17.6-17.9-1.7-.2-3.5-.3-5.2-.4-14.7.4-22.9 9.5-22.9 24.5 0 12.9 9.3 19.1 20.5 24.9 14.7 7.6 32.9 14.5 37.1 35.1 10.9-23.8 13-51.4 4.3-77.9"/><path fill="#fff" d="M135.5 16.5c-.3.2-.7.4-1.1.4-.4.1-.9.1-1.3.1-.8 0-1.5-.1-2.2-.3-.6-.2-1.1-.3-1.5-.5l-.6 1.6c.4.2.9.4 1.6.5.7.2 1.6.2 2.7.2.8 0 1.5-.1 2.1-.3.6-.2 1.2-.5 1.6-.9.4-.4.8-.8 1-1.3.2-.5.3-1.1.3-1.7 0-.8-.2-1.4-.5-2-.4-.5-.8-1-1.3-1.4-.5-.4-1.1-.7-1.7-1-.6-.3-1.2-.6-1.7-.9-.5-.3-1-.6-1.3-1-.4-.4-.5-.8-.5-1.4 0-.6.2-1.1.7-1.5.5-.4 1.2-.6 2.1-.6.8 0 1.5.1 2.2.2.6.1 1.1.3 1.4.5l.5-1.6c-.4-.2-1-.4-1.7-.5-.7-.1-1.5-.2-2.4-.2-1.5 0-2.7.3-3.5 1-.8.7-1.2 1.6-1.2 2.8 0 .8.2 1.5.5 2 .4.5.8 1 1.3 1.3.5.4 1.1.7 1.7.9.6.3 1.2.5 1.7.8.5.3 1 .6 1.3 1 .4.4.5.9.5 1.5 0 .4-.1.8-.3 1.1.1.7-.1 1-.4 1.2zM145.8 3.4h1.8v15h-1.8zM157.5 8.6l-.2-2.1h.1l1.2 2.1 7.1 10.1h1v-15.3h-1.7v9.8l.2 2.1h-.1l-1.1-2.1-7.2-10h-.9v15.2h1.6zM175.8 16.8c.6.6 1.3 1.1 2.1 1.4.8.3 1.7.5 2.6.5.4 0 .8 0 1.1-.1.4 0 .8-.1 1.1-.2.4-.1.7-.2 1-.4.3-.1.6-.3.8-.5v-6.5h-5v1l3.5.4v4.2c-.6.4-1.4.5-2.3.5-.7 0-1.4-.1-2-.4-.6-.2-1.1-.6-1.6-1.1-.4-.5-.8-1.1-1-1.9-.2-.8-.4-1.7-.4-2.7 0-1.2.1-2.1.5-2.9.3-.8.7-1.4 1.2-1.9s1-.8 1.6-1c.6-.2 1.2-.3 1.8-.3 1.3 0 2.2.2 2.9.5l.5-1.6c-.4-.2-.9-.3-1.4-.4-.6-.1-1.3-.1-2.1-.1s-1.6.1-2.4.4c-.8.3-1.5.7-2.2 1.4-.6.6-1.2 1.4-1.6 2.4-.4 1-.6 2.2-.6 3.6 0 1.3.2 2.5.5 3.5.4.8.8 1.6 1.4 2.2zM199.4 18.3c.6-.2 1.1-.5 1.6-.9.4-.4.8-1 1-1.6.2-.7.4-1.4.4-2.3v-10h-1.7v9.5c0 1.5-.2 2.5-.7 3.1-.5.6-1.3 1-2.5 1-.6 0-1.1-.1-1.6-.2-.4-.1-.8-.4-1.1-.7-.3-.3-.5-.7-.7-1.3-.2-.5-.2-1.2-.2-1.9v-9.6h-1.9v10.3c0 1.6.4 2.8 1.3 3.6.9.8 2.2 1.2 4 1.2.8.1 1.4 0 2.1-.2zM219.1 16.8h-7.1v-13.4h-1.8v15h8.9zM225.6 14.3h5.5l1.5 4.2h1.9l-5.7-15.2h-.8l-5.7 15.2h1.8l1.5-4.2zm2.2-6.1l.5-2.3.5 2.3 1.7 4.6h-4.4l1.7-4.6zM242.5 11.6l2.1.3 4.1 6.5h2.1l-3.7-5.9-1-.8c1-.2 1.8-.7 2.4-1.5.6-.7 1-1.7 1-2.8 0-.8-.1-1.4-.4-1.9-.3-.5-.6-1-1.1-1.3-.4-.3-1-.6-1.6-.7-.6-.1-1.2-.2-1.9-.2-.6 0-1.2 0-1.9.1s-1.3.1-1.9.2v14.8h1.8v-6.8zm0-6.7c.1 0 .2-.1.4-.1h1.7000000000000002c.9 0 1.7.2 2.2.8.5.5.8 1.1.8 1.9 0 1-.3 1.8-1 2.3-.6.5-1.5.7-2.4.7h-1.7v-5.6zM258.2 3.4h1.8v15h-1.8zM271.5 18.4h1.8v-13.4h4.7v-1.6h-11.1v1.6h4.6zM289.3 18.4v-5.9l4.9-9.1h-1.9l-3.4 6.6-.3 1.3h-.1l-.3-1.3-3.5-6.6h-2.1l4.9 9.1v5.9zM315.3 18.6c.7 0 1.4-.1 2-.3.6-.2 1.1-.5 1.6-.9.4-.4.8-1 1-1.6.2-.7.4-1.4.4-2.3v-10h-1.7v9.5c0 1.5-.2 2.5-.8 3.1-.5.6-1.3 1-2.5 1-.6 0-1.1-.1-1.6-.2-.4-.1-.8-.4-1.1-.7-.3-.3-.5-.7-.7-1.3-.1-.5-.2-1.2-.2-1.9v-9.6h-1.8v10.3c0 1.6.4 2.8 1.3 3.6 1 .9 2.3 1.3 4.1 1.3zM329.8 8.6l-.2-2.1h.1l1.2 2.1 7.1 10.1h.9v-15.3h-1.6v9.8l.2 2.1h-.1l-1.1-2.1-7.2-10h-.9v15.2h1.6zM347.3 3.4h1.8v15h-1.8zM362.4 13.7l-.6 2.3-.5-2.3-3.8-10.3h-2l5.8 15.3h.8l5.7-15.3h-1.8zM382.1 16.8h-6.5v-5.3h5.9v-1.6h-5.9v-4.9h6.4v-1.6h-8.2v15h8.3zM391.4 11.6l2.1.3 4.1 6.5h2.1l-3.7-5.9-1-.8c1-.2 1.8-.7 2.4-1.5.6-.7 1-1.7 1-2.8 0-.8-.1-1.4-.4-1.9-.3-.5-.6-1-1.1-1.3-.4-.3-1-.6-1.6-.7-.6-.1-1.2-.2-1.9-.2-.6 0-1.2 0-1.9.1s-1.3.1-1.9.2v14.8h1.8v-6.8zm0-6.7c.1 0 .2-.1.4-.1h1.7000000000000002c.9 0 1.7.2 2.2.8.5.5.8 1.1.8 1.9 0 1-.3 1.8-1 2.3-.6.5-1.5.7-2.4.7h-1.7v-5.6zM412.4 16.5c-.3.2-.7.4-1.1.4-.4.1-.9.1-1.3.1-.8 0-1.5-.1-2.2-.3-.6-.2-1.1-.3-1.5-.5l-.6 1.6c.4.2.9.4 1.6.5.7.2 1.6.2 2.7.2.8 0 1.5-.1 2.1-.3.6-.2 1.2-.5 1.6-.9.4-.4.8-.8 1-1.3.2-.5.3-1.1.3-1.7 0-.8-.2-1.4-.5-2-.4-.5-.8-1-1.3-1.4-.5-.4-1.1-.7-1.7-1-.6-.3-1.2-.6-1.7-.9-.5-.3-1-.6-1.3-1-.4-.4-.5-.8-.5-1.4 0-.6.2-1.1.7-1.5.5-.4 1.2-.6 2.1-.6.8 0 1.5.1 2.2.2.6.1 1.1.3 1.4.5l.5-1.6c-.4-.2-1-.4-1.7-.5-.7-.1-1.5-.2-2.4-.2-1.5 0-2.7.3-3.5 1-.8.7-1.2 1.6-1.2 2.8 0 .8.2 1.5.5 2 .4.5.8 1 1.3 1.3.5.4 1.1.7 1.7.9.6.3 1.2.5 1.7.8.5.3 1 .6 1.3 1 .4.4.5.9.5 1.5 0 .4-.1.8-.3 1.1.1.7-.1 1-.4 1.2zM422.7 3.4h1.8v15h-1.8zM436 18.4h1.8v-13.4h4.7v-1.6h-11.2v1.6h4.7zM456.8 3.4l-3.4 6.6-.4 1.3-.4-1.3-3.5-6.6h-2.1l5 9.1v5.9h1.8v-5.9l4.9-9.1zM129.6 32.9h18.5v72.8h44.3v16h-62.8v-88.8zM236 32.9h21l31.4 88.7h-20.1l-5.9-18.2h-32.7l-6 18.2h-19.4l31.7-88.7zm-1.2 55.2h22.7l-11.2-34.9-11.5 34.9zM367.2 42.4c2.7 3.8 4.1 8.3 4.1 13.5 0 5.4-1.4 9.8-4.1 13.1-1.5 1.8-3.8 3.5-6.8 5.1 4.5 1.6 7.9 4.3 10.2 7.8 2.3 3.6 3.5 7.9 3.5 13 0 5.3-1.3 10-4 14.1-1.7 2.8-3.8 5.1-6.3 7-2.8 2.2-6.2 3.7-10 4.5s-8 1.2-12.5 1.2h-40v-88.8h42.9c10.9.2 18.5 3.4 23 9.5zm-48.1 6v19.6h21.6c3.9 0 7-.7 9.4-2.2 2.4-1.5 3.6-4.1 3.6-7.8 0-4.1-1.6-6.9-4.8-8.2-2.7-.9-6.2-1.4-10.5-1.4h-19.3zm0 34.2v23.7h21.5c3.8 0 6.8-.5 9-1.6 3.9-1.9 5.8-5.6 5.8-11.1 0-4.6-1.9-7.8-5.7-9.5-2.1-1-5.1-1.5-8.9-1.5h-21.7zM402.8 94.3c.6 4.1 1.7 7.1 3.4 9.1 3.1 3.7 8.3 5.5 15.8 5.5 4.5 0 8.1-.5 10.9-1.4 5.3-1.8 7.9-5.3 7.9-10.3 0-2.9-1.3-5.2-3.9-6.8-2.6-1.6-6.7-2.9-12.3-4.2l-9.6-2.2c-9.4-2.1-15.9-4.4-19.5-6.8-6-4.1-9-10.5-9-19.2 0-7.9 2.9-14.5 8.8-19.8s14.4-7.9 25.8-7.9c9.5 0 17.5 2.5 24.2 7.4 6.7 5 10.2 12.1 10.5 21.6h-17.8c-.3-5.3-2.7-9.1-7.2-11.4-3-1.5-6.6-2.2-11-2.2-4.9 0-8.8 1-11.7 2.9-2.9 1.9-4.4 4.6-4.4 8.1 0 3.2 1.4 5.5 4.3 7.1 1.9 1 5.8 2.3 11.8 3.7l15.6 3.7c6.8 1.6 11.9 3.8 15.3 6.4 5.3 4.2 7.9 10.2 7.9 18.1 0 8.1-3.1 14.8-9.4 20.2-6.3 5.4-15.1 8-26.6 8-11.7 0-20.9-2.6-27.6-7.9-6.7-5.3-10-12.5-10-21.8h17.8z"/></svg>